<svg width="54" height="55" viewBox="0 0 54 55" fill="none" xmlns="http://www.w3.org/2000/svg">
<circle cx="27" cy="27.2292" r="27" fill="white"/>
<path d="M28.576 32.5001L23.466 29.7131C22.9755 30.2 22.3518 30.5308 21.6736 30.6637C20.9954 30.7967 20.2929 30.7259 19.6549 30.4602C19.0169 30.1945 18.4718 29.7459 18.0883 29.1709C17.7049 28.5959 17.5003 27.9202 17.5003 27.2291C17.5003 26.538 17.7049 25.8623 18.0883 25.2873C18.4718 24.7123 19.0169 24.2637 19.6549 23.998C20.2929 23.7324 20.9954 23.6615 21.6736 23.7945C22.3518 23.9274 22.9755 24.2582 23.466 24.7451L28.576 21.9581C28.4007 21.1358 28.5273 20.278 28.9326 19.5414C29.3378 18.8048 29.9947 18.2386 30.7831 17.9465C31.5714 17.6544 32.4386 17.6559 33.226 17.9506C34.0134 18.2453 34.6684 18.8136 35.0712 19.5516C35.474 20.2895 35.5978 21.1478 35.4198 21.9695C35.2418 22.7911 34.774 23.5213 34.1019 24.0264C33.4298 24.5315 32.5984 24.7778 31.7596 24.7203C30.9208 24.6628 30.1308 24.3053 29.534 23.7131L24.424 26.5001C24.5259 26.9808 24.5259 27.4775 24.424 27.9581L29.534 30.7451C30.1308 30.153 30.9208 29.7954 31.7596 29.7379C32.5984 29.6804 33.4298 29.9267 34.1019 30.4318C34.774 30.9369 35.2418 31.6671 35.4198 32.4888C35.5978 33.3104 35.474 34.1687 35.0712 34.9067C34.6684 35.6446 34.0134 36.2129 33.226 36.5076C32.4386 36.8023 31.5714 36.8038 30.7831 36.5117C29.9947 36.2196 29.3378 35.6535 28.9326 34.9169C28.5273 34.1803 28.4007 33.3224 28.576 32.5001Z" fill="#770015"/>
</svg>
