<svg width="25" height="25" viewBox="0 0 25 25" fill="none" xmlns="http://www.w3.org/2000/svg">
<path d="M22.912 6.5319C22.1486 6.8696 21.339 7.09138 20.51 7.1899C21.3837 6.66734 22.0377 5.84492 22.35 4.8759C21.53 5.3639 20.631 5.7059 19.694 5.8909C19.0646 5.21748 18.2304 4.77087 17.3209 4.62049C16.4115 4.47011 15.4779 4.62439 14.6653 5.05936C13.8526 5.49432 13.2064 6.18559 12.8271 7.0257C12.4478 7.8658 12.3567 8.80768 12.568 9.7049C10.9051 9.62156 9.27832 9.18943 7.79328 8.43657C6.30823 7.68371 4.99812 6.62695 3.94799 5.3349C3.57628 5.97335 3.38095 6.69913 3.38199 7.4379C3.38199 8.8879 4.11999 10.1689 5.24199 10.9189C4.578 10.898 3.92862 10.7187 3.34799 10.3959V10.4479C3.34819 11.4136 3.68236 12.3495 4.29384 13.097C4.90532 13.8444 5.75647 14.3574 6.70299 14.5489C6.08661 14.7159 5.4403 14.7406 4.81299 14.6209C5.07986 15.4521 5.6 16.1791 6.30058 16.7C7.00117 17.2209 7.84712 17.5097 8.71999 17.5259C7.85247 18.2072 6.85917 18.7109 5.79687 19.0081C4.73458 19.3053 3.62412 19.3902 2.52899 19.2579C4.44069 20.4873 6.66609 21.14 8.93899 21.1379C16.632 21.1379 20.839 14.7649 20.839 9.2379C20.839 9.0579 20.834 8.8759 20.826 8.6979C21.6449 8.10607 22.3516 7.37292 22.913 6.5329L22.912 6.5319Z" fill="white"/>
</svg>
