<svg width="54" height="55" viewBox="0 0 54 55" fill="none" xmlns="http://www.w3.org/2000/svg">
<circle cx="27" cy="27.2292" r="27" fill="white"/>
<path d="M19 21.6433L15.757 18.4013L17.172 16.9863L20.414 20.2293H35.656C35.8119 20.2293 35.9656 20.2657 36.1049 20.3357C36.2442 20.4056 36.3652 20.5072 36.4583 20.6322C36.5513 20.7573 36.6139 20.9023 36.6409 21.0558C36.668 21.2093 36.6588 21.367 36.614 21.5163L34.214 29.5163C34.1523 29.7224 34.0257 29.9031 33.8531 30.0315C33.6806 30.16 33.4712 30.2293 33.256 30.2293H21V32.2293H32V34.2293H20C19.7348 34.2293 19.4804 34.124 19.2929 33.9364C19.1054 33.7489 19 33.4945 19 33.2293V21.6433ZM20.5 38.2293C20.1022 38.2293 19.7207 38.0713 19.4394 37.79C19.1581 37.5087 19 37.1272 19 36.7293C19 36.3315 19.1581 35.95 19.4394 35.6687C19.7207 35.3874 20.1022 35.2293 20.5 35.2293C20.8978 35.2293 21.2794 35.3874 21.5607 35.6687C21.842 35.95 22 36.3315 22 36.7293C22 37.1272 21.842 37.5087 21.5607 37.79C21.2794 38.0713 20.8978 38.2293 20.5 38.2293ZM32.5 38.2293C32.1022 38.2293 31.7207 38.0713 31.4394 37.79C31.1581 37.5087 31 37.1272 31 36.7293C31 36.3315 31.1581 35.95 31.4394 35.6687C31.7207 35.3874 32.1022 35.2293 32.5 35.2293C32.8978 35.2293 33.2794 35.3874 33.5607 35.6687C33.842 35.95 34 36.3315 34 36.7293C34 37.1272 33.842 37.5087 33.5607 37.79C33.2794 38.0713 32.8978 38.2293 32.5 38.2293Z" fill="#770015"/>
</svg>
