<svg width="25" height="25" viewBox="0 0 25 25" fill="none" xmlns="http://www.w3.org/2000/svg">
<path d="M12.5 2.87598C15.217 2.87598 15.556 2.88598 16.622 2.93598C17.687 2.98598 18.412 3.15298 19.05 3.40098C19.71 3.65498 20.266 3.99898 20.822 4.55398C21.3305 5.05387 21.724 5.65857 21.975 6.32598C22.222 6.96298 22.39 7.68898 22.44 8.75398C22.487 9.81998 22.5 10.159 22.5 12.876C22.5 15.593 22.49 15.932 22.44 16.998C22.39 18.063 22.222 18.788 21.975 19.426C21.7247 20.0938 21.3311 20.6986 20.822 21.198C20.322 21.7063 19.7173 22.0997 19.05 22.351C18.413 22.598 17.687 22.766 16.622 22.816C15.556 22.863 15.217 22.876 12.5 22.876C9.783 22.876 9.444 22.866 8.378 22.816C7.313 22.766 6.588 22.598 5.95 22.351C5.28233 22.1005 4.67753 21.7069 4.178 21.198C3.66941 20.6982 3.27593 20.0934 3.025 19.426C2.777 18.789 2.61 18.063 2.56 16.998C2.513 15.932 2.5 15.593 2.5 12.876C2.5 10.159 2.51 9.81998 2.56 8.75398C2.61 7.68798 2.777 6.96398 3.025 6.32598C3.27524 5.65816 3.6688 5.0533 4.178 4.55398C4.67767 4.04521 5.28243 3.65171 5.95 3.40098C6.588 3.15298 7.312 2.98598 8.378 2.93598C9.444 2.88898 9.783 2.87598 12.5 2.87598ZM12.5 7.87598C11.1739 7.87598 9.90215 8.40276 8.96447 9.34044C8.02678 10.2781 7.5 11.5499 7.5 12.876C7.5 14.2021 8.02678 15.4738 8.96447 16.4115C9.90215 17.3492 11.1739 17.876 12.5 17.876C13.8261 17.876 15.0979 17.3492 16.0355 16.4115C16.9732 15.4738 17.5 14.2021 17.5 12.876C17.5 11.5499 16.9732 10.2781 16.0355 9.34044C15.0979 8.40276 13.8261 7.87598 12.5 7.87598ZM19 7.62598C19 7.29446 18.8683 6.97651 18.6339 6.74209C18.3995 6.50767 18.0815 6.37598 17.75 6.37598C17.4185 6.37598 17.1005 6.50767 16.8661 6.74209C16.6317 6.97651 16.5 7.29446 16.5 7.62598C16.5 7.9575 16.6317 8.27544 16.8661 8.50986C17.1005 8.74428 17.4185 8.87598 17.75 8.87598C18.0815 8.87598 18.3995 8.74428 18.6339 8.50986C18.8683 8.27544 19 7.9575 19 7.62598ZM12.5 9.87598C13.2956 9.87598 14.0587 10.192 14.6213 10.7547C15.1839 11.3173 15.5 12.0803 15.5 12.876C15.5 13.6716 15.1839 14.4347 14.6213 14.9973C14.0587 15.5599 13.2956 15.876 12.5 15.876C11.7044 15.876 10.9413 15.5599 10.3787 14.9973C9.81607 14.4347 9.5 13.6716 9.5 12.876C9.5 12.0803 9.81607 11.3173 10.3787 10.7547C10.9413 10.192 11.7044 9.87598 12.5 9.87598Z" fill="white"/>
</svg>
