<svg width="80" height="63" viewBox="0 0 80 63" fill="none" xmlns="http://www.w3.org/2000/svg">
<path d="M79.521 12.0622C79.0311 8.55644 78.0939 5.17584 76.7743 1.89792C76.427 1.03148 75.7347 0.688417 75.0074 0.961369C74.2926 1.22931 73.9977 1.98306 74.2826 2.83196C74.3626 3.06735 74.4751 3.29022 74.565 3.52311C77.919 12.4103 78.2889 21.4277 75.5522 30.5178C70.5863 47.0126 55.9335 58.7019 38.7939 59.8338C30.3716 60.3897 22.4641 58.5316 15.144 54.2796C11.84 52.3589 8.85847 50.0225 6.04437 47.0551C8.91845 47.3631 11.5526 47.6336 14.1843 47.9366C15.2589 48.0618 15.9887 47.6686 16.1062 46.8122C16.2111 46.061 15.6488 45.4124 14.6691 45.3047C10.7954 44.879 6.91909 44.4709 3.04033 44.0902C1.89819 43.9775 1.46083 44.4158 1.34087 45.5476C1.12344 47.566 0.881013 49.5818 0.658584 51.6001C0.448651 53.4933 0.233719 55.3889 0.0587748 57.2871C-0.0236989 58.1685 0.508632 58.8271 1.26089 58.8972C1.96567 58.9623 2.55548 58.4415 2.67544 57.5876C2.8129 56.5984 2.91786 55.6043 3.02783 54.6101C3.24526 52.6669 3.45519 50.7262 3.66763 48.783C4.04001 48.7905 4.14247 49.0559 4.30492 49.2187C15.4489 60.267 28.7771 64.6367 44.2072 61.8922C56.0934 59.7787 65.5029 53.4933 72.2933 43.5043C78.7462 34.0035 81.1155 23.4686 79.521 12.0622Z" fill="#1C1C1C"/>
</svg>
