<svg width="80" height="62" viewBox="0 0 80 62" fill="none" xmlns="http://www.w3.org/2000/svg">
<path d="M5.37475 59.3C2.24324 50.9762 1.84837 42.5072 4.09265 33.9155C9.14355 14.586 27.7676 1.53442 47.6213 3.36495C56.521 4.18631 64.356 7.49929 71.1388 13.3189C72.151 14.1853 73.1207 15.0994 74.0779 16.1887C73.1407 16.086 72.3384 15.9958 71.5337 15.9082C69.5493 15.6928 67.5674 15.4575 65.5806 15.2696C64.6634 15.1845 64.0436 15.6703 63.9486 16.4366C63.8561 17.1803 64.3959 17.7763 65.3082 17.889C66.6077 18.0517 67.9098 18.1945 69.2119 18.3372C71.7836 18.6227 74.3553 18.9257 76.9295 19.1786C78.1466 19.2963 78.5689 18.9157 78.7114 17.7112C78.9513 15.6953 79.1837 13.677 79.4037 11.6587C79.6161 9.70293 79.8285 7.74469 79.991 5.78395C80.0635 4.91251 79.5661 4.34407 78.8139 4.27145C78.0666 4.19632 77.4818 4.69966 77.3818 5.54606C77.1819 7.25138 77.0044 8.96171 76.8095 10.6695C76.6645 11.9466 76.5046 13.2213 76.3446 14.5434C76.1797 14.4483 76.1172 14.4283 76.0747 14.3882C65.4306 3.50017 52.5572 -1.06488 37.472 0.998532C28.1425 2.27314 20.0026 6.28979 13.3647 12.9483C2.0533 24.2946 -2.0279 37.9897 0.928662 53.7633C1.37602 56.1523 2.14328 58.4611 3.013 60.7324C3.39538 61.734 4.06016 62.0971 4.8774 61.7866C5.61467 61.5086 5.87959 60.7499 5.56718 59.8284C5.5072 59.6506 5.44222 59.4753 5.37475 59.3Z" fill="#1C1C1C"/>
</svg>
