<svg width="52" height="53" viewBox="0 0 52 53" fill="none" xmlns="http://www.w3.org/2000/svg">
<path d="M50.5196 12.039C42.6771 8.27277 34.8446 4.48651 27.0146 0.697738C26.3423 0.372199 25.7325 0.379712 25.0628 0.727788C23.7932 1.38638 22.4936 1.98737 21.2015 2.6059C14.6161 5.77113 8.02818 8.93637 1.44278 12.1041C0.777988 12.4246 0.535565 12.968 0.538064 13.6992C0.553059 21.9604 0.573053 30.2241 0.533066 38.4853C0.528068 39.7173 0.927939 40.416 2.05258 40.9493C9.41274 44.4451 16.7604 47.971 24.0731 51.5694C25.4201 52.233 26.4673 52.3081 27.8744 51.612C35.2795 47.9409 42.7496 44.395 50.2097 40.8391C51.1594 40.3859 51.5243 39.7674 51.5118 38.7181C51.4668 34.5863 51.4943 30.457 51.4943 26.3251C51.4993 26.3251 51.5018 26.3251 51.5068 26.3251C51.5068 22.1006 51.4968 17.8762 51.5143 13.6492C51.5193 12.8704 51.2369 12.3821 50.5196 12.039ZM25.5376 3.44729C25.82 3.31206 26.0599 3.20188 26.4073 3.37467C29.2164 4.75445 32.0405 6.10669 34.8721 7.47645C34.6597 7.807 34.3373 7.86459 34.0649 7.99731C27.6494 11.0949 21.2315 14.1825 14.826 17.2977C14.2312 17.5857 13.7614 17.5807 13.1765 17.2877C10.6898 16.0406 8.18063 14.8411 5.67893 13.6241C5.48899 13.5315 5.30155 13.4313 5.07162 13.3111C11.9294 10.0081 18.7348 6.72771 25.5376 3.44729ZM24.7054 48.9025C20.6866 46.9693 16.7729 45.0862 12.8591 43.2031C9.89009 41.7732 6.92853 40.3283 3.94948 38.9185C3.42714 38.6706 3.23471 38.3751 3.2372 37.7841C3.2597 30.6798 3.2597 23.5756 3.2397 16.4688C3.2372 15.7451 3.30468 15.5173 4.07694 15.8954C10.7323 19.1407 17.4002 22.3536 24.0706 25.5664C24.4454 25.7467 24.7229 25.8719 24.7204 26.4078C24.6979 33.8551 24.7054 41.3049 24.7054 48.9025ZM25.6451 23.2951C22.841 21.9279 20.0319 20.5731 17.0878 19.1458C18.7548 18.3394 20.2993 17.5932 21.8438 16.847C27.0196 14.3553 32.2005 11.8712 37.3663 9.35706C37.9037 9.09663 38.3035 9.11166 38.8309 9.37459C41.5 10.6993 44.1917 11.9764 47.0382 13.3512C43.6393 14.9914 40.4404 16.5364 37.2414 18.079C33.7575 19.7593 30.2711 21.4396 26.7847 23.1173C26.4273 23.2901 26.0874 23.5105 25.6451 23.2951ZM48.3703 38.7582C41.4475 42.0812 34.5297 45.4167 27.6094 48.7447C27.5595 48.7698 27.492 48.7597 27.342 48.7773C27.342 41.2749 27.347 33.8301 27.3295 26.3852C27.3295 25.9595 27.497 25.7817 27.8269 25.624C34.6247 22.3586 41.425 19.0932 48.2129 15.8077C48.7352 15.5548 48.8377 15.645 48.8377 16.1909C48.8277 23.4479 48.8277 30.7049 48.8402 37.9619C48.8377 38.355 48.7377 38.5829 48.3703 38.7582Z" fill="#1C1C1C"/>
</svg>
